<svg id="Calque_1" data-name="Calque 1" xmlns="http://www.w3.org/2000/svg" width="48" height="48" viewBox="0 0 48 48"><defs><style>.cls-1{fill:#45b649;}.cls-2{fill:#c7c8ca;}.cls-3{fill:#fff;}</style></defs><title>icon-loroi</title><rect class="cls-1" width="48" height="48"/><polygon class="cls-2" points="41.031 27.71 43.669 23.911 22.681 8.516 41.031 27.71"/><polygon class="cls-2" points="29.312 27.71 31.512 25.854 23.253 17.217 29.312 27.71"/><polygon class="cls-2" points="19.761 27.71 24.046 25.011 22.679 22.645 19.761 27.71"/><path class="cls-2" d="M12.0837,27.71l5.5724-2.7784,4.441-7.7026Z" transform="translate(0)"/><polygon class="cls-3" points="33.287 27.71 41.031 27.71 22.681 8.516 4.331 27.71 12.084 27.71 22.097 17.229 16.054 27.71 19.761 27.71 22.101 23.645 22.679 22.645 23.257 23.645 25.605 27.71 29.312 27.71 23.257 17.223 23.253 17.217 23.259 17.223 33.287 27.71"/><path class="cls-2" d="M11.9863,32.1621a2.0418,2.0418,0,0,1-2.15,1.8516H9.1309L8.59,36.5576H7.5356l1.3291-6.2568h1.76Q12.385,30.3008,11.9863,32.1621Zm-1.0591,0c.07-.3115.063-.5078-.0225-.5869q-.0872-.1011-.5317-.1006H9.6714L9.3828,32.84h.7012a1.2117,1.2117,0,0,0,.5776-.0908A.9341.9341,0,0,0,10.9272,32.1621Z" transform="translate(0)"/><path class="cls-2" d="M16.5908,34.6006a2.1052,2.1052,0,0,1-2.1724,1.957q-1.7607,0-1.3477-1.957l.5-2.3467a2.11,2.11,0,0,1,2.1772-1.9531q1.76,0,1.3428,1.9531Zm-1.0542,0,.5-2.3467a.914.914,0,0,0-.0044-.6279c-.07-.1016-.249-.1514-.5361-.1514a.9059.9059,0,0,0-.6006.1514,1.2494,1.2494,0,0,0-.2661.6279l-.5,2.3467a.9186.9186,0,0,0,0,.6328q.11.1509.5361.15a.9248.9248,0,0,0,.6006-.15A1.2581,1.2581,0,0,0,15.5366,34.6006Z" transform="translate(0)"/><path class="cls-2" d="M21.8833,34.6963a2.0536,2.0536,0,0,1-2.1592,1.8613q-1.7607,0-1.3613-1.8613l.0317-.1738h1.0542a1.4478,1.4478,0,0,0-.0547.7061c.0576.1035.25.1553.5771.1553a1.12,1.12,0,0,0,.5825-.1006.9989.9989,0,0,0,.2705-.5869c.064-.3047.0562-.501-.0229-.5859a.92.92,0,0,0-.5366-.0967q-1.7644,0-1.3706-1.8516a2.0536,2.0536,0,0,1,2.1592-1.8613q1.7607,0,1.3613,1.8613l-.0322.1689H21.3276a1.3576,1.3576,0,0,0,.0469-.71q-.0791-.1465-.5732-.1465a1.1054,1.1054,0,0,0-.5776.1006.96.96,0,0,0-.2749.5869q-.0923.4717.0317.5869a.942.942,0,0,0,.5317.0908Q22.2729,32.84,21.8833,34.6963Z" transform="translate(0)"/><path class="cls-2" d="M27.6885,31.4746H26.46l-1.0771,5.083H24.3237l1.0825-5.083H24.1675l.2529-1.1738h3.52Z" transform="translate(0)"/><path class="cls-2" d="M32.1563,34.6006a2.1062,2.1062,0,0,1-2.1729,1.957q-1.7607,0-1.3477-1.957l.917-4.3h1.0537l-.9121,4.3a.9186.9186,0,0,0,0,.6328q.11.1509.5361.15a.9248.9248,0,0,0,.6006-.15,1.2581,1.2581,0,0,0,.2705-.6328l.917-4.3h1.0537Z" transform="translate(0)"/><path class="cls-2" d="M37.0488,36.5576H33.5283l1.33-6.2568h1.0537l-1.0771,5.083h2.4619Z" transform="translate(0)"/><path class="cls-2" d="M41.0352,30.3008l-.6963,1.9531h-.4912l.1338-1.9531Z" transform="translate(0)"/><path class="cls-3" d="M11.5547,32.1621a2.0418,2.0418,0,0,1-2.15,1.8516H8.6992l-.541,2.5439H7.104l1.3291-6.2568h1.76Q11.9534,30.3008,11.5547,32.1621Zm-1.0591,0c.07-.3115.063-.5078-.0225-.5869q-.0872-.1011-.5317-.1006H9.24L8.9512,32.84h.7012a1.2117,1.2117,0,0,0,.5776-.0908A.9341.9341,0,0,0,10.4956,32.1621Z" transform="translate(0)"/><path class="cls-3" d="M16.1592,34.6006a2.1052,2.1052,0,0,1-2.1724,1.957q-1.7607,0-1.3477-1.957l.5-2.3467a2.11,2.11,0,0,1,2.1772-1.9531q1.76,0,1.3428,1.9531Zm-1.0542,0,.5-2.3467A.914.914,0,0,0,15.6,31.626c-.07-.1016-.249-.1514-.5361-.1514a.9059.9059,0,0,0-.6006.1514,1.2494,1.2494,0,0,0-.2661.6279l-.5,2.3467a.9186.9186,0,0,0,0,.6328q.11.1509.5361.15a.9248.9248,0,0,0,.6006-.15A1.2581,1.2581,0,0,0,15.105,34.6006Z" transform="translate(0)"/><path class="cls-3" d="M21.4517,34.6963a2.0539,2.0539,0,0,1-2.1592,1.8613q-1.7607,0-1.3613-1.8613l.0317-.1738h1.0542a1.4478,1.4478,0,0,0-.0547.7061c.0576.1035.25.1553.5771.1553a1.12,1.12,0,0,0,.5825-.1006.9989.9989,0,0,0,.2705-.5869c.064-.3047.0562-.501-.0229-.5859a.92.92,0,0,0-.5366-.0967q-1.7644,0-1.3706-1.8516a2.0536,2.0536,0,0,1,2.1592-1.8613q1.7607,0,1.3613,1.8613l-.0322.1689H20.896a1.3576,1.3576,0,0,0,.0469-.71q-.0791-.1465-.5732-.1465a1.1054,1.1054,0,0,0-.5776.1006.96.96,0,0,0-.2749.5869q-.0923.4717.0317.5869a.942.942,0,0,0,.5317.0908Q21.8413,32.84,21.4517,34.6963Z" transform="translate(0)"/><path class="cls-3" d="M27.2568,31.4746H26.0283l-1.0776,5.083H23.8921l1.082-5.083H23.7358l.2529-1.1738h3.52Z" transform="translate(0)"/><path class="cls-3" d="M31.7246,34.6006a2.1062,2.1062,0,0,1-2.1729,1.957q-1.7607,0-1.3477-1.957l.917-4.3h1.0537l-.9121,4.3a.9186.9186,0,0,0,0,.6328q.11.1509.5361.15a.9248.9248,0,0,0,.6006-.15,1.2581,1.2581,0,0,0,.2705-.6328l.917-4.3h1.0537Z" transform="translate(0)"/><path class="cls-3" d="M36.6172,36.5576H33.0967l1.33-6.2568H35.48l-1.0771,5.083h2.4619Z" transform="translate(0)"/><path class="cls-3" d="M40.6035,30.3008l-.6963,1.9531H39.416l.1338-1.9531Z" transform="translate(0)"/></svg>